<?xml version="1.0" encoding="iso-8859-1"?>
<!-- Generator: Adobe Illustrator 19.0.0, SVG Export Plug-In . SVG Version: 6.00 Build 0)  -->
<svg xmlns="http://www.w3.org/2000/svg" xmlns:xlink="http://www.w3.org/1999/xlink" version="1.1" id="Capa_1" x="0px" y="0px" viewBox="0 0 465 465" style="enable-background:new 0 0 465 465;" xml:space="preserve" width="512" height="512">
<g>
	<path style="fill:#FFFFFF;" d="M132.74,187.08c12.05,0,21.81,9.77,21.81,21.81c0,12.05-9.76,21.82-21.81,21.82   c-12.04,0-21.81-9.77-21.81-21.82C110.93,196.85,120.7,187.08,132.74,187.08z"/>
	<path style="fill:#FFD608;" d="M7.5,232.5c0-13.04,10.57-23.6,23.6-23.6h21.67c11.18-63.81,66.85-112.3,133.86-112.3h32.75   c68.78,0,125.62,51.1,134.64,117.41c10.57-1.09,19.3-5.58,26.84-11.69c17.27-13.97,28.36-36.43,41.33-46.03   c21.38,18.57,35.31,45.66,35.31,76.21s-13.93,57.64-35.31,76.21c-12.97-9.6-24.06-32.06-41.33-46.03   c-7.54-6.11-16.27-10.6-26.84-11.69C345,317.3,288.16,368.4,219.38,368.4h-32.75c-67.01,0-122.68-48.49-133.86-112.3H31.1   C18.07,256.1,7.5,245.54,7.5,232.5z M154.55,208.89c0-12.04-9.76-21.81-21.81-21.81c-12.04,0-21.81,9.77-21.81,21.81   c0,12.05,9.77,21.82,21.81,21.82C144.79,230.71,154.55,220.94,154.55,208.89z"/>
	<path style="fill:#FFF2B1;" d="M380.86,262.68v55.39c0,27.8-22.54,50.33-50.33,50.33H219.38c68.78,0,125.62-51.1,134.64-117.41   C364.59,252.08,373.32,256.57,380.86,262.68z"/>
	<path style="fill:#FFF2B1;" d="M380.86,146.93v55.39c-7.54,6.11-16.27,10.6-26.84,11.69C345,147.7,288.16,96.6,219.38,96.6h111.15   C358.32,96.6,380.86,119.13,380.86,146.93z"/>
	<path style="fill:#591200;" d="M132.743,179.584c-16.162,0-29.311,13.149-29.311,29.311s13.148,29.311,29.311,29.311   s29.311-13.148,29.311-29.311S148.905,179.584,132.743,179.584z M132.743,223.206c-7.891,0-14.311-6.42-14.311-14.311   c0-7.891,6.42-14.311,14.311-14.311s14.311,6.42,14.311,14.311C147.054,216.786,140.634,223.206,132.743,223.206z"/>
	<path style="fill:#591200;" d="M427.106,150.625c-2.654-2.307-6.556-2.458-9.38-0.366c-7.079,5.24-13.246,13.304-19.775,21.841   c-10.705,13.999-21.733,28.417-37.781,33.095c-5.991-31.019-22.174-59.328-46.106-80.39c-9.408-8.279-19.784-15.213-30.833-20.708   h47.297c23.618,0,42.832,19.215,42.832,42.833v18.814c0,4.142,3.357,7.5,7.5,7.5s7.5-3.358,7.5-7.5v-18.814   c0-31.889-25.943-57.833-57.832-57.833H219.418c-0.053,0-32.791,0-32.791,0c-33.942,0-66.87,12.076-92.717,34.003   c-23.925,20.297-40.561,47.911-47.297,78.295H31.104C13.953,201.395,0,215.349,0,232.5s13.953,31.105,31.104,31.105h15.509   c6.736,30.384,23.372,57.998,47.297,78.295c25.847,21.927,58.774,34.003,92.717,34.003h32.738c0.053,0,111.162,0,111.162,0   c31.889,0,57.832-25.943,57.832-57.833v-18.813c0-4.142-3.357-7.5-7.5-7.5s-7.5,3.358-7.5,7.5v18.813   c0,23.618-19.214,42.833-42.832,42.833h-47.297c11.049-5.496,21.425-12.429,30.833-20.708   c23.933-21.062,40.115-49.372,46.106-80.39c16.048,4.677,27.076,19.096,37.781,33.095c6.529,8.537,12.696,16.601,19.775,21.841   c2.824,2.093,6.726,1.939,9.38-0.366C451.188,293.458,465,263.616,465,232.5S451.188,171.542,427.106,150.625z M422.06,298.602   c-3.937-4.018-7.98-9.307-12.193-14.814c-12.789-16.723-28.705-37.535-55.076-40.253c-4.022-0.411-7.654,2.439-8.2,6.449   c-8.604,63.221-63.272,110.9-127.173,110.92h-32.79c-62.515,0-115.702-44.619-126.469-106.093   c-0.629-3.588-3.745-6.206-7.388-6.206H31.104c-6.172,0-11.537-3.494-14.24-8.605h35.906c4.143,0,7.5-3.358,7.5-7.5   s-3.357-7.5-7.5-7.5H16.865c2.703-5.111,8.068-8.605,14.24-8.605h21.666c3.643,0,6.759-2.618,7.388-6.206   c10.767-61.474,63.954-106.093,126.469-106.093h32.79c63.901,0.021,118.569,47.699,127.173,110.92   c0.547,4.011,4.172,6.863,8.2,6.449c26.371-2.718,42.287-23.53,55.076-40.253c4.213-5.508,8.257-10.797,12.193-14.814   C439.891,184.109,450,207.858,450,232.5S439.891,280.891,422.06,298.602z"/>
</g>















</svg>
